<?xml version="1.0" encoding="UTF-8" standalone="no"?>
<!-- Created with Inkscape (http://www.inkscape.org/) -->

<svg
   version="1.1"
   id="svg1"
   width="1134"
   height="971"
   viewBox="0 0 1134 971"
   sodipodi:docname="destinationVurshets-map.svg"
   inkscape:version="1.4 (86a8ad7, 2024-10-11)"
   xmlns:inkscape="http://www.inkscape.org/namespaces/inkscape"
   xmlns:sodipodi="http://sodipodi.sourceforge.net/DTD/sodipodi-0.dtd"
   xmlns="http://www.w3.org/2000/svg"
   xmlns:svg="http://www.w3.org/2000/svg">
  <defs
     id="defs1">
    <rect
       x="97.460967"
       y="85.428748"
       width="240.34356"
       height="67.079615"
       id="rect122" />
  </defs>
  <sodipodi:namedview
     id="namedview1"
     pagecolor="#ffffff"
     bordercolor="#000000"
     borderopacity="0.25"
     inkscape:showpageshadow="2"
     inkscape:pageopacity="0.0"
     inkscape:pagecheckerboard="0"
     inkscape:deskcolor="#d1d1d1"
     showgrid="false"
     inkscape:zoom="0.83110196"
     inkscape:cx="464.44362"
     inkscape:cy="448.20012"
     inkscape:window-width="1920"
     inkscape:window-height="1009"
     inkscape:window-x="-8"
     inkscape:window-y="-8"
     inkscape:window-maximized="1"
     inkscape:current-layer="g1" />
  <g
     inkscape:groupmode="layer"
     inkscape:label="Image"
     id="g1">
    <path
       d="m 888.42969,67.982422 -14.13867,32.185548 -30.38086,38.95508 -16.84571,-5.86719 -35.57031,1.80664 v 1.95508 l 34.14258,-1.20313 16.76953,4.43555 -30.45703,39.33008 -16.46875,-13.46094 -1.2793,1.50391 16.54492,13.08593 -3.53515,3.75977 -38.87891,20.07812 5.05078,-12.26562 -2.02148,-0.63672 -5.5293,14.25 -11.5918,9.67774 -0.10742,-4.04102 16.38086,-45.9375 0.60156,-9.02539 5.86524,-7.36914 6.4668,-3.1582 1.5039,-1.50391 4.21289,-0.15039 0.15039,-1.6543 h -3.61133 l 0.30079,-8.27148 -2.10547,-1.80664 -1.50391,1.65625 1.6543,1.20312 v 7.06836 l -8.1211,4.66211 -6.61718,7.82031 -1.20313,10.83008 -16.54492,46.17383 0.60156,3.91016 -2.55664,4.8125 -6.16601,1.05273 -6.61914,3.45898 -8.72266,5.26368 -1.80469,1.80664 -34.89453,-1.35352 1.50586,-5.11523 3.00781,-6.61719 1.95508,-2.70703 h 14.28711 l 9.17578,-4.36133 12.33203,-8.27344 -2.10547,-1.95508 -10.22656,6.91993 -9.47656,5.11328 -11.73047,0.15039 10.22656,-7.82031 5.71485,-7.82227 9.62695,-0.15039 -0.15039,-2.25586 -8.72266,0.45117 14.58789,-20.90625 -2.25586,-1.05273 -14.58984,20.45508 -1.05273,2.55664 -4.51172,5.86523 -11.88086,10.22852 -3.3086,3.30859 -17.41797,0.13672 -28.50195,2.76562 -19.35547,3.08399 -1.48828,0.95703 -0.21289,2.33984 6.38086,16.16602 -0.0918,10.12109 -7.74609,-10.52929 -2.48242,-0.45118 h -1.50391 l -2.17969,0.82813 -30.68359,62.26758 -6.01562,12.7832 -12.03125,33.38867 -44.97071,-12.7832 -1.35351,3.00781 45.49414,12.19141 c 0,0 -0.14012,1.80046 2.625,2.54492 2.76512,0.74445 7.23242,0.74414 7.23242,0.74414 v 18.50586 l -4.14844,5.84961 c 0,0 -2.55286,4.25403 -1.5957,6.59375 0.95716,2.33972 3.08594,6.38086 3.08594,6.38086 0,0 1.06351,5.52999 0,8.50781 -1.06351,2.97782 -9.4668,23.50391 -9.4668,23.50391 l 1.70312,1.0625 9.9961,-25.73633 c 0,0 0.74477,-4.78584 -0.74414,-7.76367 -1.48891,-2.97782 -2.65821,-6.59375 -2.65821,-6.59375 0,0 -0.42653,-6.16904 5.31641,-9.57227 l 5.84961,2.55274 -2.55273,4.78515 10.42187,5.95703 0.74609,-1.38281 -8.82812,-5.10547 1.80859,-3.40234 15.95117,7.65625 -5.42382,10.3164 -5.84766,-2.87109 -0.85156,1.70117 7.23242,3.61524 6.06055,-11.69727 16.69726,8.18945 -45.41015,77.95508 -9.67969,-2.23437 -2.01953,1.16992 -5.84961,19.46289 1.38281,0.42578 5.31641,-17.54883 1.70312,-1.38281 9.35742,2.55273 2.02149,-0.85156 44.98633,-78.48633 11.59179,7.33789 -20.09961,35.09571 -15.10156,24.99219 -16.37891,32.54492 -23.92773,48.91992 -14.7832,33.18164 c 0,0 -2.87229,7.12581 -2.02149,9.14648 0.85081,2.02066 -35.0957,66.1504 -35.0957,66.15039 l -10.52734,9.57227 -0.85157,-5.84961 -2.23437,-5.84961 -6.06055,-10.63476 -1.91406,0.95703 5.84766,10.42187 1.70312,5.63672 1.59375,6.69922 4.89258,9.99805 1.06445,1.5957 v 7.76367 l -4.57422,13.29297 -50.94531,35.48633 1.80469,2.55664 51.43945,-35.49414 13.83594,-10.37695 6.01562,-9.62696 h 3.61133 l 66.92774,93.40039 1.5039,-1.20312 -54.74609,-77.60742 h 8.72265 l 20.90625,-9.32618 10.07813,5.7168 13.68555,-19.25195 -9.92578,-7.97266 3.65625,-7.13867 c 0,0 2.12638,-5.74439 4.78515,-0.5332 2.65877,5.21118 4.14844,5.53125 4.14844,5.53125 l 4.25391,0.31836 12.33593,-20.41797 22.86524,-21.58985 c 0,0 1.91589,-8.50887 6.16992,-8.61523 4.25403,-0.10635 5.21094,-4.99805 5.21094,-4.99805 l -0.10743,-1.80859 6.48829,-5.42383 9.0039,10.08008 13.23633,-13.53516 c 0,0 12.78376,-16.84508 5.86523,-24.51562 -6.91851,-7.67054 -10.3773,-25.11835 -6.01562,-34.89453 4.36168,-9.77618 20.90625,-27.97461 20.90625,-27.97461 l 6.61719,6.61718 -10.98047,12.48438 c 0,0 -13.53534,7.37027 -11.2793,17.59766 2.25604,10.22738 12.48242,2.25585 12.48242,2.25585 l 14.43946,-26.4707 0.90234,-7.82226 14.58984,-19.70313 0.45118,-9.77539 7.66992,4.66211 c 0,0 3.30871,2.85726 1.80469,4.8125 -1.50403,1.95523 -0.90235,14.58984 -0.90235,14.58984 l 22.25977,15.94336 21.50781,51.88867 3.1582,-0.90234 -21.6582,-52.64062 -22.25977,-15.3418 c 0,0 -1.65447,-10.37866 0.60157,-13.53711 2.25605,-3.15846 -4.06055,-7.66992 -4.06055,-7.66992 l 12.48437,-4.06055 6.4668,-6.91797 40.60742,49.63281 c 0,0 8.42297,21.05535 19.10157,12.9336 10.67859,-8.12175 18.04882,-16.99414 18.04882,-16.99414 l -1.80468,-2.10742 -18.04883,16.8457 c 0,0 -3.45852,3.15856 -9.32422,-1.35352 -5.86571,-4.51209 6.31641,-12.63281 6.31641,-12.63281 l -1.50391,-2.10742 -8.57227,8.27344 -2.85742,-4.8125 -7.82226,-9.47657 5.11328,-6.3164 10.07812,-23.16211 27.25977,30.38867 18.71875,-14.88867 -42.54102,-48.2832 13.82617,-7.01954 c 0,0 4.04052,-2.33952 1.2754,-6.38086 -1.81007,-2.64548 -8.0307,-16.49563 -12.96875,-27.64062 l -0.85743,-1.71094 0.041,-0.13086 c -2.04405,-4.6278 -4.93164,-11.14258 -4.93164,-11.14258 0,0 -7.02086,-3.19052 -8.50977,0 -1.48892,3.19052 -8.50781,8.50782 -8.50781,8.50782 l -14.88867,11.48633 11.91211,-19.56836 v -19.14454 h -2.55274 l -0.21289,17.44141 -12.97461,21.27149 -15.10156,-7.8711 6.59375,-11.69726 -3.4043,-1.49024 -5.3164,11.27344 -8.29688,-4.04102 19.78125,-36.58398 9.35938,-14.46484 -6.38086,-9.78321 27.43945,-60.62109 -2.97851,-1.0625 -3.40235,7.23047 -8.29687,-2.76367 3.1914,-5.10547 1.70118,-5.74219 5.31835,-9.14649 5.95508,-4.46679 14.46289,-18.29297 10.63672,-8.08203 9.35742,-0.85156 13.1875,11.27343 c 0,0 4.67925,2.97858 6.38086,0.85157 1.70161,-2.12702 16.80469,13.61132 16.80469,13.61132 l -3.19141,13.61328 0.85157,30.8418 h 1.91406 l -0.85156,-30.8418 3.83008,-12.33593 14.88867,1.0625 13.61328,3.61718 -0.42578,9.9961 46.58203,61.68359 8.50781,5.10547 1.48828,20.20703 7.44531,7.86914 3.18946,12.12305 12.76172,8.93359 7.01953,9.57227 -8.08203,8.29492 -16.16602,14.67774 -34.45703,-13.82618 c 0,0 -14.46321,-0.63741 -17.01563,2.97852 -2.55241,3.61592 -7.01953,2.12695 -7.01953,2.12695 l -11.06054,10.20899 -0.85157,3.40234 -27.86328,-5.31641 -30.84179,-40.41406 6.38086,-4.89258 9.57226,-0.42382 15.31445,14.46289 2.76563,-2.12696 -16.16602,-14.03906 c 0,0 -5.95665,-2.3399 -12.125,-0.21289 -6.16835,2.12702 -7.44336,5.53125 -7.44336,5.53125 l -18.29296,-26.375 -2.33985,1.91406 18.29297,24.67383 -11.06055,9.57227 -5.49023,17.31054 c 0.33795,0.76514 0.44675,1.0075 0.81641,1.8418 l 0.41992,0.83984 4.04101,-14.03711 31.69336,38.92383 13.61133,-9.57226 25.3125,5.53125 4.67969,-0.63868 2.12695,-3.18945 9.99609,-9.57226 8.29493,-4.04102 14.25195,-1.27734 32.96875,13.61328 4.67969,-1.27539 25.94922,-24.24805 -8.9336,-12.125 -13.40039,-8.29492 -1.48828,-9.9961 -2.33984,-4.04101 -6.80664,-6.80664 -0.42579,-16.37891 h 7.44532 v -2.76562 l -7.65821,-0.21289 -8.29492,-3.82813 -12.54883,-18.29101 6.80664,-3.61719 v -3.18945 l 5.74219,-3.4043 1.48828,2.12695 h 2.97852 c 0,0 11.91148,3.19066 13.40039,8.9336 1.48891,5.74295 14.67578,16.80273 14.67578,16.80273 l 2.12695,-2.12695 -13.82421,-14.67578 18.29101,-7.01954 8.7207,17.22852 5.53125,28.07812 19.35547,25.31055 4.4668,1.91406 3.8281,-1.48828 4.4668,-4.67968 -1.2754,-1.0625 -4.6797,4.2539 -4.2539,-0.42578 -18.50582,-24.24805 -5.5293,-27.22656 -14.89062,-38.92383 -7.01758,-1.06445 c 0,0 -0.63867,-11.06042 -13.82617,-8.7207 l -28.39649,17.12304 -8.82617,-21.80078 -1.16992,-29.88476 4.46679,-10.21094 0.85157,-25.41797 12.65429,-5.21094 -0.95703,-2.12695 -12.12304,4.4668 -9.14649,5.21093 -15.63476,6.16993 -11.80469,3.40234 -12.23047,6.59375 -1.91406,-0.85156 0.42578,-12.23047 5.31836,-15.8457 1.48828,-0.31836 c 0,0 4.57334,-6.27577 4.67969,-6.70118 0.10635,-0.4254 -1.48828,-1.16992 -1.48828,-1.16992 l -3.83008,5.84961 h -1.16992 l -2.97657,-21.69531 9.76563,-20.34766 5.41406,-20.98047 43.08984,-30.60742 -1.05273,-1.35351 -43.61719,30.83398 -6.01562,21.35547 -9.77539,19.85352 3.45898,24.66601 -5.26367,15.94336 -0.15039,1.50391 -2.40625,0.90234 -1.95508,1.05273 -5.11523,11.13086 -4.06055,2.40625 -13.53516,9.47461 -2.70703,0.75196 -1.65625,-0.60157 -8.12109,-5.26367 5.56445,-7.06836 1.20313,-31.43554 15.64257,-1.05274 -0.15039,-2.70703 -15.04101,0.90234 0.60156,-16.8457 h -1.6543 l -1.20312,16.99609 -15.33985,-3.30859 -2.10546,-12.0332 61.51367,-80.01367 14.58984,-32.335941 z"
       style="fill:#000000;fill-opacity:0;stroke:#000000;stroke-width:0.302362;stroke-linecap:round;stroke-linejoin:round"
       id="path97" />
    <path
       style="fill:#000000;fill-opacity:0"
       d="M 926.74076,287.78523 907.22924,358.5601"
       id="path2" />
    <path
       style="fill:#000000;fill-opacity:0;stroke:#000000;stroke-width:0.302362;stroke-linecap:round;stroke-linejoin:round;stroke-dasharray:none;stroke-opacity:1"
       d="m 500.08907,698.16946 10.67859,-7.21933 21.05638,-35.19424 -16.24349,-9.32497 -5.2641,10.82899 -10.9794,10.5282 4.81289,9.32496 -0.30081,10.37779 z"
       id="path3" />
    <path
       style="fill:#000000;fill-opacity:0;stroke:#000000;stroke-width:0.302362;stroke-linecap:round;stroke-linejoin:round;stroke-dasharray:none;stroke-opacity:1"
       d="m 520.21488,680.21964 2.95123,0.0798 -0.77104,-3.48299 z"
       id="path4" />
    <path
       style="fill:#000000;fill-opacity:0;stroke:#000000;stroke-width:0.302362;stroke-linecap:round;stroke-linejoin:round;stroke-dasharray:none;stroke-opacity:1"
       d="m 535.58411,694.71019 9.02416,0.45121 19.70276,-9.47537 13.08504,-19.40195 3.91047,-6.46732 h -3.00806 l -6.31691,-9.77618 v -4.06087 l -9.02417,-6.01611 0.60162,-1.20322 9.02416,5.5649 4.81289,-5.5649 -11.88182,-14.28826 -8.27215,-7.06893 -11.2802,20.60518 -21.658,36.24705 1.05282,5.71531 z"
       id="path5" />
    <path
       style="fill:#000000;fill-opacity:0;stroke:#000000;stroke-width:0.302362;stroke-linecap:round;stroke-linejoin:round;stroke-dasharray:none;stroke-opacity:1"
       d="m 558.44532,614.84635 29.02773,-49.3321 60.9131,34.44223 -6.31691,4.96329 -0.45121,3.45926 -1.50403,2.40644 -3.45926,1.05282 -2.85765,1.80483 -1.80483,3.30886 -1.35363,3.15846 -21.9588,20.75558 -11.58101,20.60517 -3.45926,0.1504 -3.91047,-5.7153 c 0,0 -3.15846,-3.60967 -5.11369,-0.75201 -1.95524,2.85765 -4.06088,3.15845 -4.06088,3.15845 l -6.16651,-8.27215 -0.1504,-4.06087 10.22738,-14.88987 10.9794,3.76007 0.90242,-1.95524 -12.18262,-4.06087 -5.7153,7.97134 -11.28021,-14.13785 z"
       id="path6" />
    <path
       style="fill:#000000;fill-opacity:0;stroke:#000000;stroke-width:0.302362;stroke-linecap:round;stroke-linejoin:round;stroke-dasharray:none;stroke-opacity:1"
       d="m 539.94579,602.06211 6.91852,-2.25604 8.42256,15.94269 -22.41001,37.75109 -15.79229,-8.57296 z"
       id="path7" />
    <path
       style="fill:#000000;fill-opacity:0;stroke:#000000;stroke-width:0.302362;stroke-linecap:round;stroke-linejoin:round;stroke-dasharray:none;stroke-opacity:1"
       d="m 544.30747,592.73714 2.40644,5.4145 -5.86571,1.95524 z"
       id="path8" />
    <path
       style="fill:#000000;fill-opacity:0;stroke:#000000;stroke-width:0.302362;stroke-linecap:round;stroke-linejoin:round;stroke-dasharray:none;stroke-opacity:1"
       d="m 562.05499,550.77478 24.21484,13.08504 -29.47894,49.7833 -11.1298,-23.31242 z"
       id="path9" />
    <path
       style="fill:#000000;fill-opacity:0;stroke:#000000;stroke-width:0.302362;stroke-linecap:round;stroke-linejoin:round;stroke-dasharray:none;stroke-opacity:1"
       d="m 587.17224,562.20539 26.47088,-43.01518 -27.37329,-17.44671 -9.92658,20.15396 21.65799,12.33302 -0.75201,2.55685 -22.41001,-12.63383 -11.2802,24.36524 z"
       id="path10" />
    <path
       style="fill:#000000;fill-opacity:0;stroke:#000000;stroke-width:0.302362;stroke-linecap:round;stroke-linejoin:round;stroke-dasharray:none;stroke-opacity:1"
       d="m 593.48916,487.00403 27.6741,16.09309 -6.91853,13.53625 -27.37329,-16.84511 z"
       id="path11" />
    <path
       style="fill:#000000;fill-opacity:0;stroke:#000000;stroke-width:0.302362;stroke-linecap:round;stroke-linejoin:round;stroke-dasharray:none;stroke-opacity:1"
       d="m 628.6834,491.2153 -5.86571,10.5282 -28.72692,-17.29632 5.4145,-10.37779 z"
       id="path12" />
    <path
       style="fill:#000000;fill-opacity:0;stroke:#000000;stroke-width:0.302362;stroke-linecap:round;stroke-linejoin:round;stroke-dasharray:none;stroke-opacity:1"
       d="m 630.03702,488.65846 -28.42611,-17.14591 7.52013,-14.88987 22.71081,11.88181 1.20323,-2.10564 -22.56041,-12.03221 9.02416,-15.19068 29.77974,15.34108 z"
       id="path13" />
    <path
       style="fill:#000000;fill-opacity:0;stroke:#000000;stroke-width:0.302362;stroke-linecap:round;stroke-linejoin:round;stroke-dasharray:none;stroke-opacity:1"
       d="m 640.41481,402.9289 26.17007,19.10115 -16.09309,30.53175 -29.62934,-15.04027 8.57296,-15.19067 25.26766,15.49148 1.65443,-1.80484 -25.71887,-15.79228 z"
       id="path14" />
    <path
       style="fill:#000000;fill-opacity:0;stroke:#000000;stroke-width:0.302362;stroke-linecap:round;stroke-linejoin:round;stroke-dasharray:none;stroke-opacity:1"
       d="m 581.90815,357.50728 7.06893,2.55685 9.62577,1.05282 -7.82094,17.44671 -8.42255,-3.60966 z"
       id="path15" />
    <path
       style="fill:#000000;fill-opacity:0;stroke:#000000;stroke-width:0.302362;stroke-linecap:round;stroke-linejoin:round;stroke-dasharray:none;stroke-opacity:1"
       d="m 601.1597,363.22258 23.16202,6.16652 -9.32497,21.65799 -21.9588,-10.829 z"
       id="path16" />
    <path
       style="fill:#000000;fill-opacity:0;stroke:#000000;stroke-width:0.302362;stroke-linecap:round;stroke-linejoin:round;stroke-dasharray:none;stroke-opacity:1"
       d="m 627.32977,371.04353 15.19068,3.60966 -3.60967,24.81645 -2.10564,4.51208 -19.25155,-11.58101 z"
       id="path17" />
    <path
       style="fill:#000000;fill-opacity:0;stroke:#000000;stroke-width:0.302362;stroke-linecap:round;stroke-linejoin:round;stroke-dasharray:none;stroke-opacity:1"
       d="m 645.5285,372.69796 v 12.18262 l -3.15846,13.08503 3.45927,2.25604 27.07249,-32.03578 -1.95524,-0.75201 h -3.30886 l -13.98745,6.61772 -4.21128,0.30081 z"
       id="path18" />
    <path
       style="fill:#000000;fill-opacity:0;stroke:#000000;stroke-width:0.302362;stroke-linecap:round;stroke-linejoin:round;stroke-dasharray:none;stroke-opacity:1"
       d="m 647.18293,370.74272 2.85765,1.35363 16.69471,-6.76813 7.06892,0.45121 2.85766,-3.60966 0.75201,-0.75202 0.45121,0.30081 1.20322,-2.55685 -1.95524,-2.85765 0.60162,-5.4145 4.96329,-29.17813 -7.67054,-10.22738 z"
       id="path19" />
    <path
       style="fill:#000000;fill-opacity:0;stroke:#000000;stroke-width:0.302362;stroke-linecap:round;stroke-linejoin:round;stroke-dasharray:none;stroke-opacity:1"
       d="m 625.37454,365.62903 17.59712,6.01611 14.13785,-29.93015 -13.98745,-7.82094 z"
       id="path20" />
    <path
       style="fill:#000000;fill-opacity:0;stroke:#000000;stroke-width:0.302362;stroke-linecap:round;stroke-linejoin:round;stroke-dasharray:none;stroke-opacity:1"
       d="m 622.79021,323.30639 18.18599,8.93347 -17.76058,32.75604 -20.1003,-5.63659 z"
       id="path21" />
    <path
       style="fill:#000000;fill-opacity:0;stroke:#000000;stroke-width:0.302362;stroke-linecap:round;stroke-linejoin:round;stroke-dasharray:none;stroke-opacity:1"
       d="m 605.24233,314.79833 15.10182,7.44456 -19.56855,35.94656 -9.99697,-0.8508 -7.76361,-3.82863 z"
       id="path22" />
    <path
       style="fill:#000000;fill-opacity:0;stroke:#000000;stroke-width:0.302362;stroke-linecap:round;stroke-linejoin:round;stroke-dasharray:none;stroke-opacity:1"
       d="m 590.56592,306.60932 13.1875,6.4874 -22.44001,39.9879 -7.76361,-0.74446 11.27318,-34.56401 z"
       id="path23" />
    <path
       style="fill:#000000;fill-opacity:0;stroke:#000000;stroke-width:0.302362;stroke-linecap:round;stroke-linejoin:round;stroke-dasharray:none;stroke-opacity:1"
       d="m 662.24636,296.08059 10.10332,12.33669 -13.6129,30.73538 -14.67641,-7.44455 z"
       id="path24" />
    <path
       style="fill:#000000;fill-opacity:0;stroke:#000000;stroke-width:0.302362;stroke-linecap:round;stroke-linejoin:round;stroke-dasharray:none;stroke-opacity:1"
       d="m 646.61279,276.08665 13.8256,17.76058 -18.39868,36.90372 -18.71774,-9.57157 z"
       id="path25" />
    <path
       style="fill:#000000;fill-opacity:0;stroke:#000000;stroke-width:0.302362;stroke-linecap:round;stroke-linejoin:round;stroke-dasharray:none;stroke-opacity:1"
       d="m 632.99989,257.36891 12.12399,15.84626 -23.29082,45.94354 -15.31452,-7.23185 z"
       id="path26" />
    <path
       style="fill:#000000;fill-opacity:0;stroke:#000000;stroke-width:0.302362;stroke-linecap:round;stroke-linejoin:round;stroke-dasharray:none;stroke-opacity:1"
       d="m 591.41673,304.48231 13.08115,6.59374 27.2258,-54.77065 -7.65726,-11.59224 -1.38256,-0.74445 -1.59526,0.6381 z"
       id="path27" />
    <path
       style="fill:#000000;fill-opacity:0;stroke:#000000;stroke-width:0.302362;stroke-linecap:round;stroke-linejoin:round;stroke-dasharray:none;stroke-opacity:1"
       d="m 634.4888,255.66729 11.59224,15.63357 7.5509,-14.67641 7.97631,-12.23034 3.61593,-3.82863 5.10484,-4.67943 4.78578,-3.82863 1.91431,-0.85081 h 12.86845 l 0.4254,-4.36038 3.19053,-7.55091 h -15.31452 l -47.7515,5.42389 -0.74446,0.42541 -0.10635,1.80796 5.10484,14.35736 2.33972,-4.04133 2.33972,-1.16986 1.80796,-0.10635 1.80796,1.27621 v 2.44607 l -1.59526,3.72227 -3.93498,6.59375 z"
       id="path28" />
    <path
       style="fill:#000000;fill-opacity:0;stroke:#000000;stroke-width:0.302362;stroke-linecap:round;stroke-linejoin:round;stroke-dasharray:none;stroke-opacity:1"
       d="m 635.44596,242.4798 v 7.23185 l 5.53024,-9.78427 -0.10635,-1.48891 -1.16986,-0.53176 -1.27621,0.10635 z"
       id="path29" />
    <path
       style="fill:#000000;fill-opacity:0;stroke:#000000;stroke-width:0.302362;stroke-linecap:round;stroke-linejoin:round;stroke-dasharray:none;stroke-opacity:1"
       d="m 677.87992,233.01458 10.63508,0.2127 -13.6129,31.58618 -18.29234,-8.29536 7.55091,-10.84778 z"
       id="path30" />
    <path
       style="fill:#000000;fill-opacity:0;stroke:#000000;stroke-width:0.302362;stroke-linecap:round;stroke-linejoin:round;stroke-dasharray:none;stroke-opacity:1"
       d="m 691.17377,233.86538 32.22429,0.85081 -29.88457,38.92439 -16.27167,-7.23186 z"
       id="path31" />
    <path
       style="fill:#000000;fill-opacity:0;stroke:#000000;stroke-width:0.302362;stroke-linecap:round;stroke-linejoin:round;stroke-dasharray:none;stroke-opacity:1"
       d="m 655.75896,258.43241 36.69102,16.69708 -18.93044,30.94808 -10.20968,-12.44304 10.74143,-15.73992 -1.59526,-0.74446 -10.10332,14.57006 -13.82561,-17.44153 z"
       id="path32" />
    <path
       style="fill:#000000;fill-opacity:0;stroke:#000000;stroke-width:0.302362;stroke-linecap:round;stroke-linejoin:round;stroke-dasharray:none;stroke-opacity:1"
       d="m 726.48223,235.46064 22.12097,-11.80493 -14.88912,49.66581 -4.36038,0.21271 z"
       id="path33" />
    <path
       style="fill:#000000;fill-opacity:0;stroke:#000000;stroke-width:0.302362;stroke-linecap:round;stroke-linejoin:round;stroke-dasharray:none;stroke-opacity:1"
       d="m 724.24886,236.8432 2.44607,36.79738 -17.76058,-0.42541 -2.12701,0.74446 -1.70162,3.72228 -21.27015,41.0514 -7.97631,-9.46522 19.67489,-33.7132 z"
       id="path34" />
    <path
       style="fill:#000000;fill-opacity:0;stroke:#000000;stroke-width:0.302362;stroke-linecap:round;stroke-linejoin:round;stroke-dasharray:none;stroke-opacity:1"
       d="m 680.32599,357.8704 26.8004,-11.80494 -22.54637,-21.80191 z"
       id="path35" />
    <path
       style="fill:#000000;fill-opacity:0;stroke:#000000;stroke-width:0.302362;stroke-linecap:round;stroke-linejoin:round;stroke-dasharray:none;stroke-opacity:1"
       d="m 685.64353,320.54127 18.93044,15.73992 4.78578,8.18901 11.37954,-16.16532 12.23034,-19.78124 0.85081,-1.38256 -22.86542,-0.74446 -1.91432,-0.85081 2.02067,-29.88457 -2.55242,-0.31905 z"
       id="path36" />
    <path
       style="fill:#000000;fill-opacity:0;stroke:#000000;stroke-width:0.302362;stroke-linecap:round;stroke-linejoin:round;stroke-dasharray:none;stroke-opacity:1"
       d="m 713.29473,276.08665 13.93196,-0.10636 6.7001,28.82107 -21.69556,-0.2127 z"
       id="path37" />
    <path
       style="fill:#000000;fill-opacity:0;stroke:#000000;stroke-width:0.302362;stroke-linecap:round;stroke-linejoin:round;stroke-dasharray:none;stroke-opacity:1"
       d="m 760.30178,276.4057 -30.52267,-0.95716 6.06199,27.86391 z"
       id="path38" />
    <path
       style="fill:#000000;fill-opacity:0;stroke:#000000;stroke-width:0.302362;stroke-linecap:round;stroke-linejoin:round;stroke-dasharray:none;stroke-opacity:1"
       d="m 744.03011,247.69098 20.84476,3.93498 14.78276,12.01764 -6.062,10.52873 -38.17993,-0.2127 z"
       id="path39" />
    <path
       style="fill:#000000;fill-opacity:0;stroke:#000000;stroke-width:0.302362;stroke-linecap:round;stroke-linejoin:round;stroke-dasharray:none;stroke-opacity:1"
       d="m 744.98727,245.56397 20.63205,3.61593 9.78427,-19.35585 -8.72076,-2.76512 -7.01915,-2.55242 -7.01915,-3.93498 z"
       id="path40" />
    <path
       style="fill:#000000;fill-opacity:0;stroke:#000000;stroke-width:0.302362;stroke-linecap:round;stroke-linejoin:round;stroke-dasharray:none;stroke-opacity:1"
       d="m 804.65006,188.4536 -35.73386,18.39868 -15.42087,11.59224 6.4874,3.93498 16.16532,5.53024 1.91431,-4.36038 -7.97631,-1.80797 -2.87147,-3.82863 1.70162,-0.8508 2.55241,2.97782 7.01916,1.70161 z"
       id="path41" />
    <path
       style="fill:#000000;fill-opacity:0;stroke:#000000;stroke-width:0.302362;stroke-linecap:round;stroke-linejoin:round;stroke-dasharray:none;stroke-opacity:1"
       d="m 813.37082,182.6043 1.27621,9.78428 -4.57308,-3.82863 -0.10635,-1.16986 z"
       id="path42" />
    <path
       style="fill:#000000;fill-opacity:0;stroke:#000000;stroke-width:0.302362;stroke-linecap:round;stroke-linejoin:round;stroke-dasharray:none;stroke-opacity:1"
       d="m 807.52153,190.58061 2.65877,0.95716 3.72228,3.29687 1.91431,4.78579 0.85081,5.53024 0.10635,12.33669 -2.44607,6.16835 -31.26713,-2.55242 z"
       id="path43" />
    <path
       style="fill:#000000;fill-opacity:0;stroke:#000000;stroke-width:0.302362;stroke-linecap:round;stroke-linejoin:round;stroke-dasharray:none;stroke-opacity:1"
       d="m 781.67829,223.65571 31.90524,2.33971 -2.65877,7.23186 -9.78428,7.44455 -21.58921,-11.48588 z"
       id="path44" />
    <path
       style="fill:#000000;fill-opacity:0;stroke:#000000;stroke-width:0.302362;stroke-linecap:round;stroke-linejoin:round;stroke-dasharray:none;stroke-opacity:1"
       d="m 778.48777,231.52566 19.67489,10.74143 -10.52873,14.03831 -2.23336,3.29687 -3.61593,2.97782 -13.71925,-11.27318 z"
       id="path45" />
    <path
       style="fill:#000000;fill-opacity:0;stroke:#000000;stroke-width:0.302362;stroke-linecap:round;stroke-linejoin:round;stroke-dasharray:none;stroke-opacity:1"
       d="m 813.68988,232.48282 h 7.44455 l 0.85081,-8.40171 -2.65877,-9.35887 -1.06351,4.99849 z"
       id="path46" />
    <path
       style="fill:#000000;fill-opacity:0;stroke:#000000;stroke-width:0.302362;stroke-linecap:round;stroke-linejoin:round;stroke-dasharray:none;stroke-opacity:1"
       d="m 817.3058,196.53626 15.31452,3.29687 -1.38256,30.20362 -4.46674,6.91281 -2.23336,-3.19053 0.31905,-9.57157 -5.10484,-13.71925 z"
       id="path47" />
    <path
       style="fill:#000000;fill-opacity:0;stroke:#000000;stroke-width:0.302362;stroke-linecap:round;stroke-linejoin:round;stroke-dasharray:none;stroke-opacity:1"
       d="m 867.82243,220.14613 -3.08417,1.16986 -4.99849,10.42238 7.76361,-1.27621 z"
       id="path48" />
    <path
       style="fill:#000000;fill-opacity:0;stroke:#000000;stroke-width:0.302362;stroke-linecap:round;stroke-linejoin:round;stroke-dasharray:none;stroke-opacity:1"
       d="m 842.51094,244.92586 16.16532,-10.84778 9.35887,-0.8508 0.53175,11.59223 13.1875,9.99698 1.27621,-1.38256 -12.01764,-9.46522 -0.8508,-10.20968 7.3382,4.04133 1.06351,-1.59526 -6.062,-3.93498 12.33669,-6.06199 9.03982,-2.23337 6.38105,13.71925 -4.25403,28.92741 -19.56855,-5.63659 -15.63356,-0.8508 z"
       id="path49" />
    <path
       style="fill:#000000;fill-opacity:0;stroke:#000000;stroke-width:0.302362;stroke-linecap:round;stroke-linejoin:round;stroke-dasharray:none;stroke-opacity:1"
       d="m 902.06738,239.82103 11.16683,7.97631 0.85081,29.67187 9.35887,23.71622 6.062,11.37954 v 2.44606 l -5.53025,3.19053 -32.64969,-42.00856 -0.10635,-8.93347 4.57309,1.70161 2.55241,0.85081 3.08418,2.87147 1.48891,3.19052 0.53175,1.80797 1.59526,0.10635 v -3.40323 c 0,0 -0.95715,-1.59526 -1.0635,-2.02066 -0.10635,-0.42541 -2.76512,-3.19053 -2.76512,-3.19053 l -3.19053,-1.59526 z"
       id="path50" />
    <path
       style="fill:#000000;fill-opacity:0;stroke:#000000;stroke-width:0.302362;stroke-linecap:round;stroke-linejoin:round;stroke-dasharray:none;stroke-opacity:1"
       d="m 931.10115,310.3316 6.16834,-3.29688 -1.48891,-3.19052 16.16532,-8.72076 12.54939,-3.29688 -0.4254,-3.40322 c 0,0 -1.27621,-1.48891 -1.48891,-1.91432 -0.2127,-0.4254 -2.97782,-1.48891 -2.97782,-1.48891 h -3.50958 l -2.65877,0.2127 -3.40322,2.02067 -23.50353,13.8256 z"
       id="path51" />
    <path
       style="fill:#000000;fill-opacity:0;stroke:#000000;stroke-width:0.302362;stroke-linecap:round;stroke-linejoin:round;stroke-dasharray:none;stroke-opacity:1"
       d="m 938.65205,304.37595 2.76512,4.78579 4.46674,0.95716 8.08266,3.08417 3.82862,5.53024 20.20665,-7.76361 -5.53024,-15.52721 -5.31754,-1.48891 -13.93195,3.82863 z"
       id="path52" />
    <path
       style="fill:#000000;fill-opacity:0;stroke:#000000;stroke-width:0.302362;stroke-linecap:round;stroke-linejoin:round;stroke-dasharray:none;stroke-opacity:1"
       d="m 896.21809,223.54936 16.80342,-6.80645 3.82863,-3.40323 1.27621,0.31905 -0.2127,20.84476 -3.93498,11.16683 -11.27318,-8.40171 z"
       id="path53" />
    <path
       style="fill:#000000;fill-opacity:0;stroke:#000000;stroke-width:0.302362;stroke-linecap:round;stroke-linejoin:round;stroke-dasharray:none;stroke-opacity:1"
       d="m 819.92046,385.63259 -10.07698,7.89614 -0.2256,3.08326 28.42611,37.45028 10.9794,-7.29453 z"
       id="path54" />
    <path
       style="fill:#000000;fill-opacity:0;stroke:#000000;stroke-width:0.302362;stroke-linecap:round;stroke-linejoin:round;stroke-dasharray:none;stroke-opacity:1"
       d="m 797.43526,453.76503 -15.49149,10.07698 42.26317,47.67766 14.58907,-10.67859 z"
       id="path55" />
    <path
       style="fill:#000000;fill-opacity:0;stroke:#000000;stroke-width:0.302362;stroke-linecap:round;stroke-linejoin:round;stroke-dasharray:none;stroke-opacity:1"
       d="m 780.74055,465.79724 14.28826,16.5443 -9.92658,23.61323 -4.51208,6.01611 -10.37779,-12.33302 z"
       id="path56" />
    <path
       style="fill:#000000;fill-opacity:0;stroke:#000000;stroke-width:0.302362;stroke-linecap:round;stroke-linejoin:round;stroke-dasharray:none;stroke-opacity:1"
       d="m 770.36276,444.44006 8.57296,18.34913 -10.829,34.14142 -13.98745,-17.44672 z"
       id="path57" />
    <path
       style="fill:#000000;fill-opacity:0;stroke:#000000;stroke-width:0.302362;stroke-linecap:round;stroke-linejoin:round;stroke-dasharray:none;stroke-opacity:1"
       d="m 760.93989,423.59519 8.61441,18.50503 -16.80342,35.94657 -12.44305,-15.10181 -1.80796,-1.27621 z"
       id="path58" />
    <path
       style="fill:#000000;fill-opacity:0;stroke:#000000;stroke-width:0.302362;stroke-linecap:round;stroke-linejoin:round;stroke-dasharray:none;stroke-opacity:1"
       d="m 744.13646,413.17281 15.20816,7.97631 0.42541,1.06351 -22.22732,37.86088 -13.08114,-7.65726 z"
       id="path59" />
    <path
       style="fill:#000000;fill-opacity:0;stroke:#000000;stroke-width:0.302362;stroke-linecap:round;stroke-linejoin:round;stroke-dasharray:none;stroke-opacity:1"
       d="m 765.30027,420.61737 -1.91432,-0.53176 -0.8508,1.06351 -0.31905,1.59526 18.71773,39.24344 15.73992,-10.42238 -17.76058,-39.66884 z"
       id="path60" />
    <path
       style="fill:#000000;fill-opacity:0;stroke:#000000;stroke-width:0.302362;stroke-linecap:round;stroke-linejoin:round;stroke-dasharray:none;stroke-opacity:1"
       d="m 790.61176,400.83612 2.44606,0.2127 2.12702,2.23337 2.02067,3.61592 15.84626,34.35131 0.31905,1.27621 -1.2762,1.27621 -1.38256,-0.2127 -11.91129,7.1255 -17.86694,-41.47681 z"
       id="path61" />
    <path
       style="fill:#000000;fill-opacity:0;stroke:#000000;stroke-width:0.302362;stroke-linecap:round;stroke-linejoin:round;stroke-dasharray:none;stroke-opacity:1"
       d="m 721.90915,413.17281 h 4.99848 l -3.72227,8.08266 1.48891,0.4254 8.18901,-14.251 8.82711,3.61592 -18.71773,36.79738 -2.33972,4.25403 -0.2127,0.85081 15.31451,9.67792 9.89062,11.59223 -6.16834,6.7001 -13.50655,4.25403 -9.35887,-4.36038 -22.18222,-5.38889 1.65443,-5.4145 -2.55685,-5.4145 -0.75201,-2.55684 1.95523,-2.55685 3.45927,1.20322 2.10563,-0.3008 3.15846,-1.35363 1.20322,-2.40644 -0.45121,-1.05282 -1.95523,1.20322 -1.20322,1.20322 -3.15846,-0.1504 -2.25604,-0.90242 0.60161,-1.65443 2.10564,-2.85765 0.90241,-1.80483 -0.1504,-1.65443 -1.95523,-1.35363 -1.20323,-2.40644 v -2.25604 -0.60161 l 7.21934,3.30886 3.15845,-0.30081 1.80484,-1.50402 z"
       id="path62" />
    <path
       style="fill:#000000;fill-opacity:0;stroke:#000000;stroke-width:0.302362;stroke-linecap:round;stroke-linejoin:round;stroke-dasharray:none;stroke-opacity:1"
       d="m 692.90536,440.98079 v 4.06088 l 1.50403,2.70725 1.20322,1.35362 0.75201,2.25604 -1.65443,2.40645 -1.50402,2.55684 -1.20323,3.00806 -1.50402,1.50402 0.1504,2.55685 1.35362,3.45926 0.75202,1.65443 0.1504,2.10564 -0.75201,2.85765 -1.05282,1.05282 -17.14591,-7.06893 16.6947,-28.12531 z"
       id="path63" />
    <path
       style="fill:#000000;fill-opacity:0;stroke:#000000;stroke-width:0.302362;stroke-linecap:round;stroke-linejoin:round;stroke-dasharray:none;stroke-opacity:1"
       d="m 729.00201,397.364 5.1137,2.10564 -5.5649,10.9794 -4.96329,0.45121 z"
       id="path64" />
    <path
       style="fill:#000000;fill-opacity:0;stroke:#000000;stroke-width:0.302362;stroke-linecap:round;stroke-linejoin:round;stroke-dasharray:none;stroke-opacity:1"
       d="m 719.52664,391.4983 7.52014,3.60966 -21.05638,46.17364 -2.10564,1.65443 -11.88182,-5.86571 z"
       id="path65" />
    <path
       style="fill:#000000;fill-opacity:0;stroke:#000000;stroke-width:0.302362;stroke-linecap:round;stroke-linejoin:round;stroke-dasharray:none;stroke-opacity:1"
       d="m 721.18107,388.49024 13.08504,6.16651 17.29631,-26.47088 -13.83705,-8.72335 z"
       id="path66" />
    <path
       style="fill:#000000;fill-opacity:0;stroke:#000000;stroke-width:0.302362;stroke-linecap:round;stroke-linejoin:round;stroke-dasharray:none;stroke-opacity:1"
       d="m 758.02974,349.38553 2.55685,2.40645 v 2.25604 l -6.61772,11.73141 -5.71531,-2.70725 z"
       id="path67" />
    <path
       style="fill:#000000;fill-opacity:0;stroke:#000000;stroke-width:0.302362;stroke-linecap:round;stroke-linejoin:round;stroke-dasharray:none;stroke-opacity:1"
       d="m 753.36726,341.71499 3.00805,5.1137 -10.22738,14.88987 -7.97135,-4.66249 z"
       id="path68" />
    <path
       style="fill:#000000;fill-opacity:0;stroke:#000000;stroke-width:0.302362;stroke-linecap:round;stroke-linejoin:round;stroke-dasharray:none;stroke-opacity:1"
       d="m 742.68866,328.47955 9.02417,10.5282 -13.68665,14.28825 -7.52014,-5.41449 z"
       id="path69" />
    <path
       style="fill:#000000;fill-opacity:0;stroke:#000000;stroke-width:0.302362;stroke-linecap:round;stroke-linejoin:round;stroke-dasharray:none;stroke-opacity:1"
       d="m 729.45322,350.28795 5.86571,4.36168 0.75201,2.25604 -17.44671,30.08054 -11.58101,-8.12174 z"
       id="path70" />
    <path
       style="fill:#000000;fill-opacity:0;stroke:#000000;stroke-width:0.302362;stroke-linecap:round;stroke-linejoin:round;stroke-dasharray:none;stroke-opacity:1"
       d="m 769.91156,288.77323 7.97134,2.40645 -8.57295,20.15396 -7.52014,-4.36168 z"
       id="path71" />
    <path
       style="fill:#000000;fill-opacity:0;stroke:#000000;stroke-width:0.302362;stroke-linecap:round;stroke-linejoin:round;stroke-dasharray:none;stroke-opacity:1"
       d="m 761.0378,309.0776 6.46731,3.76007 -7.82094,19.10115 -5.86571,-3.15846 -0.3008,-2.25604 z"
       id="path72" />
    <path
       style="fill:#000000;fill-opacity:0;stroke:#000000;stroke-width:0.302362;stroke-linecap:round;stroke-linejoin:round;stroke-dasharray:none;stroke-opacity:1"
       d="m 762.99303,276.89142 9.17457,-0.60161 -4.06088,10.07698 -8.87376,18.34913 -5.5649,-2.85765 z"
       id="path73" />
    <path
       style="fill:#000000;fill-opacity:0;stroke:#000000;stroke-width:0.302362;stroke-linecap:round;stroke-linejoin:round;stroke-dasharray:none;stroke-opacity:1"
       d="m 751.86323,304.71592 6.31691,2.40645 -6.46731,16.8451 -0.90242,3.45927 0.45121,2.25604 2.40644,2.40644 3.91047,1.50403 0.90242,0.60161 -2.10564,6.31691 -11.88181,-13.98745 z"
       id="path74" />
    <path
       style="fill:#000000;fill-opacity:0;stroke:#000000;stroke-width:0.302362;stroke-linecap:round;stroke-linejoin:round;stroke-dasharray:none;stroke-opacity:1"
       d="m 736.52215,307.12237 22.56041,-26.77169 -9.02416,20.30437 -8.42256,24.51564 -23.61322,32.9382 -7.21934,-11.43061 z"
       id="path75" />
    <path
       style="fill:#000000;fill-opacity:0;stroke:#000000;stroke-width:0.302362;stroke-linecap:round;stroke-linejoin:round;stroke-dasharray:none;stroke-opacity:1"
       d="m 680.87314,361.26735 27.07249,-12.78423 7.97135,12.63383 -14.13786,16.9955 -21.9588,-15.34107 z"
       id="path76" />
    <path
       style="fill:#000000;fill-opacity:0;stroke:#000000;stroke-width:0.302362;stroke-linecap:round;stroke-linejoin:round;stroke-dasharray:none;stroke-opacity:1"
       d="m 675.60905,369.6899 -26.47088,32.03578 19.25155,15.04027 z"
       id="path77" />
    <path
       style="fill:#000000;fill-opacity:0;stroke:#000000;stroke-width:0.302362;stroke-linecap:round;stroke-linejoin:round;stroke-dasharray:none;stroke-opacity:1"
       d="m 695.1614,508.81242 6.01611,6.76813 16.5443,-21.20679 0.1504,-3.76007 -5.11369,-1.65443 -11.73141,13.98746 z"
       id="path78" />
    <path
       style="fill:#000000;fill-opacity:0;stroke:#000000;stroke-width:0.302362;stroke-linecap:round;stroke-linejoin:round;stroke-dasharray:none;stroke-opacity:1"
       d="m 702.38073,517.83659 -12.48342,13.08503 -7.52014,7.21934 -3.15846,6.76812 1.05282,3.91047 5.86571,0.45121 3.76007,-4.36168 z"
       id="path79" />
    <path
       style="fill:#000000;fill-opacity:0;stroke:#000000;stroke-width:0.302362;stroke-linecap:round;stroke-linejoin:round;stroke-dasharray:none;stroke-opacity:1"
       d="m 678.6171,366.53144 -7.06893,52.18975 27.82451,-37.14947 z"
       id="path80" />
    <path
       style="fill:#000000;fill-opacity:0;stroke:#000000;stroke-width:0.302362;stroke-linecap:round;stroke-linejoin:round;stroke-dasharray:none;stroke-opacity:1"
       d="m 701.77912,382.77494 15.19068,8.12175 -12.78424,19.70275 -14.88986,-10.67859 z"
       id="path81" />
    <path
       style="fill:#000000;fill-opacity:0;stroke:#000000;stroke-width:0.302362;stroke-linecap:round;stroke-linejoin:round;stroke-dasharray:none;stroke-opacity:1"
       d="m 688.09247,401.87608 -8.12174,10.9794 6.61772,4.51209 7.97134,-9.77618 z"
       id="path82" />
    <path
       style="fill:#000000;fill-opacity:0;stroke:#000000;stroke-width:0.302362;stroke-linecap:round;stroke-linejoin:round;stroke-dasharray:none;stroke-opacity:1"
       d="m 696.96623,408.94501 6.01611,3.91047 -11.88181,20.45477 -17.59712,-12.93463 4.51208,-5.7153 9.02416,5.8657 z"
       id="path83" />
    <path
       style="fill:#000000;fill-opacity:0;stroke:#000000;stroke-width:0.302362;stroke-linecap:round;stroke-linejoin:round;stroke-dasharray:none;stroke-opacity:1"
       d="m 646.28052,402.9289 44.06799,31.73498 -1.20322,1.35362 -44.068,-32.18618 z"
       id="path84" />
    <path
       style="fill:#000000;fill-opacity:0;stroke:#000000;stroke-width:0.302362;stroke-linecap:round;stroke-linejoin:round;stroke-dasharray:none;stroke-opacity:1"
       d="m 668.08891,423.98529 -15.94269,29.47893 9.47537,6.16651 6.16652,-12.33302 z"
       id="path85" />
    <path
       style="fill:#000000;fill-opacity:0;stroke:#000000;stroke-width:0.302362;stroke-linecap:round;stroke-linejoin:round;stroke-dasharray:none;stroke-opacity:1"
       d="m 670.49535,425.63972 18.34914,11.73141 -0.45121,1.80483 -2.10564,-0.3008 -1.35362,0.3008 -1.20323,1.50403 -2.55684,-1.20322 -1.80483,-1.35363 -1.80484,-1.20322 -0.75201,-0.1504 -0.90242,1.05282 -0.3008,2.85765 v 3.00805 l 0.60161,2.70725 1.35362,2.10564 1.05282,2.25604 0.90242,0.75201 0.60161,1.35363 -7.82094,12.48343 -7.82094,-3.60967 6.0161,-13.83705 z"
       id="path86" />
    <path
       style="fill:#000000;fill-opacity:0;stroke:#000000;stroke-width:0.302362;stroke-linecap:round;stroke-linejoin:round;stroke-dasharray:none;stroke-opacity:1"
       d="m 686.88925,442.03361 -1.50403,-0.3008 -1.50402,1.05282 -2.40645,-1.20323 -3.30886,-2.40644 -0.3008,3.60967 1.35362,4.36168 1.20322,2.25604 0.75202,0.4512 2.55684,-3.15845 z"
       id="path87" />
    <path
       style="fill:#000000;fill-opacity:0;stroke:#000000;stroke-width:0.302362;stroke-linecap:round;stroke-linejoin:round;stroke-dasharray:none;stroke-opacity:1"
       d="m 650.49179,456.47227 20.00356,11.43061 -8.87376,14.88987 -19.25155,-11.43061 z"
       id="path88" />
    <path
       style="fill:#000000;fill-opacity:0;stroke:#000000;stroke-width:0.302362;stroke-linecap:round;stroke-linejoin:round;stroke-dasharray:none;stroke-opacity:1"
       d="m 632.14266,489.71128 16.5443,8.87376 4.51208,0.45121 7.82094,-13.23544 -18.95074,-12.33303 z"
       id="path89" />
    <path
       style="fill:#000000;fill-opacity:0;stroke:#000000;stroke-width:0.302362;stroke-linecap:round;stroke-linejoin:round;stroke-dasharray:none;stroke-opacity:1"
       d="m 673.0522,469.85812 -9.02416,13.83705 10.9794,7.21933 h 4.36168 l 2.85765,1.65443 0.3008,1.95523 1.95524,3.45927 0.1504,3.15845 -2.55685,4.96329 -2.25604,2.40645 -1.65443,-0.90242 c 0,0 0.45121,-2.85765 1.05282,-3.30886 0.60161,-0.45121 2.55685,-3.91047 2.55685,-3.91047 l -0.30081,-4.21128 -2.40644,-2.85765 h -4.81289 l -11.2802,-6.31691 -7.21933,13.38584 -7.06893,1.50403 -17.74752,-9.77618 -14.73947,24.81645 19.40195,20.45477 10.37779,0.30081 v 3.00805 l -8.72336,0.45121 -11.1298,18.19873 6.76812,4.21128 9.62578,-9.62578 1.95523,1.20322 -2.55684,3.76007 4.21127,2.70725 2.10564,-4.06087 2.55685,0.90241 -1.65443,4.36168 3.60966,2.55685 h 4.96329 v 1.80483 l -5.11369,0.1504 -12.33302,-6.91852 -5.2641,4.66248 3.91047,3.45927 0.1504,2.25604 h -1.05281 l -0.15041,-1.65443 -12.63383,-7.52014 -6.91852,17.14591 31.28377,19.10115 2.85765,2.85765 6.76812,8.27215 11.88182,-12.33302 6.16651,-11.28021 0.1504,-9.32497 -5.2641,-7.36973 -4.06087,-8.57296 -0.3008,-9.77617 1.05281,-9.17457 2.55685,-7.21933 3.60967,-6.01611 36.69826,-40.90954 5.86571,1.65443 0.60161,-4.21128 -10.37779,-3.45926 -4.36168,2.70725 -5.4145,0.3008 -5.4145,1.65443 h -3.15845 l 0.1504,-1.50402 3.60967,-1.35363 9.02416,-1.05282 3.15846,-1.80483 -13.08504,-1.65443 z"
       id="path90" />
    <path
       style="fill:#000000;fill-opacity:0;stroke:#000000;stroke-width:0.302362;stroke-linecap:round;stroke-linejoin:round;stroke-dasharray:none;stroke-opacity:1"
       d="m 616.19997,521.44625 18.34913,17.14591 -11.1298,21.05638 -5.7153,15.64189 z"
       id="path91" />
    <path
       style="fill:#000000;fill-opacity:0;stroke:#000000;stroke-width:0.302362;stroke-linecap:round;stroke-linejoin:round;stroke-dasharray:none;stroke-opacity:1"
       d="m 613.49272,522.19827 1.20322,17.74752 -11.58101,0.45121 z"
       id="path92" />
    <path
       style="fill:#000000;fill-opacity:0;stroke:#000000;stroke-width:0.302362;stroke-linecap:round;stroke-linejoin:round;stroke-dasharray:none;stroke-opacity:1"
       d="m 599.65567,543.40505 h 12.18262 l -4.81289,9.47537 -3.00805,-1.80483 -1.35363,2.40644 3.45927,2.40645 -6.91853,12.03221 -9.47537,-5.26409 z"
       id="path93" />
    <path
       style="fill:#000000;fill-opacity:0;stroke:#000000;stroke-width:0.302362;stroke-linecap:round;stroke-linejoin:round;stroke-dasharray:none;stroke-opacity:1"
       d="m 614.69594,544.00666 -5.26409,9.32497 5.26409,3.60967 z"
       id="path94" />
    <path
       style="fill:#000000;fill-opacity:0;stroke:#000000;stroke-width:0.302362;stroke-linecap:round;stroke-linejoin:round;stroke-dasharray:none;stroke-opacity:1"
       d="m 608.37903,556.64049 6.76812,3.00805 0.75201,17.59712 -12.78423,-7.67054 z"
       id="path95" />
    <path
       style="fill:#000000;fill-opacity:0;stroke:#000000;stroke-width:0.302362;stroke-linecap:round;stroke-linejoin:round;stroke-dasharray:none;stroke-opacity:1"
       d="m 579.18639,667.9893 8.56124,5.79612 -10.95413,15.95261 -9.09299,-4.99848 z"
       id="path96" />
    <path
       style="fill:#ffffff;fill-opacity:0;stroke:#000000;stroke-width:0.302362;stroke-linecap:round;stroke-linejoin:round;stroke-dasharray:none;stroke-opacity:1"
       d="m 446.32009,735.01812 -23.23722,16.76991 -31.35897,-44.068 -3.33082,-2.82701 -42.54032,28.92742 -62.95966,30.62902 -28.92742,13.8256 -13.1875,8.29537 -12.97479,24.24798 -6.16835,9.78427 -8.72076,5.53024 -1.06351,3.19052 11.48588,8.72077 13.77325,24.51543 -9.24977,2.70725 -12.55863,-12.70904 -10.22738,-16.46909 -1.72963,1.27842 4.81288,8.57295 -12.25782,5.1889 0.67681,1.57923 11.58101,-4.36168 4.06088,4.88809 -21.13159,10.9794 -14.66426,-3.91047 -0.75202,-2.70725 2.25605,-2.85766 6.0161,-7.74574 10.07699,-22.1844 2.93285,-14.21306 -1.80483,-0.376 -2.55685,13.00983 -10.22738,22.034 -7.67054,9.70098 -0.75202,0.97762 -0.1504,4.73768 -5.26409,3.15846 0.60161,2.18084 5.7153,-3.53447 11.80661,2.70725 0.15041,0.82722 -32.33659,17.29631 -3.91047,14.06266 -16.2435,-0.0752 -4.58728,1.12802 -2.10564,-3.38406 2.40645,-9.47538 2.78245,0.0752 4.06087,-1.12802 9.24977,-11.0546 -1.80483,-0.60161 -7.89615,9.92658 -2.63204,0.97762 c 0,0 -2.85766,0.2256 -2.85766,-0.0752 0,-0.30081 12.93464,-18.04833 12.93464,-18.04833 l -1.57923,-0.52641 -13.68665,18.57474 -2.48164,6.39212 -0.22561,4.51208 1.12802,3.23366 0.52641,1.35362 -34.442222,12.40822 0.902416,2.55685 40.909546,-14.73947 14.88987,0.45121 8.72335,-0.60161 4.06088,6.91853 1.95523,2.25604 -1.20322,1.65443 -10.07698,-4.06088 h -12.33303 l 0.45121,1.80484 11.1298,0.1504 10.22739,4.06087 1.05282,-0.3008 1.65443,-2.55685 6.16651,-0.45121 0.30081,-1.80483 -6.16652,-0.45121 -4.51208,-7.82094 31.88538,-14.13786 5.86571,17.44672 -0.60161,2.55685 -8.57296,1.05282 -6.46732,0.3008 -0.1504,1.50403 7.06893,-0.30081 8.12175,-0.75201 1.80483,-1.35363 6.46732,-1.65443 2.40644,-3.15845 0.60161,-3.00806 0.60161,-16.24349 -0.90241,-2.10564 6.0161,-3.76007 13.53625,14.13786 2.25604,9.92658 2.25604,-1.20322 -2.25604,-8.57296 11.1298,-10.67859 2.70725,7.21933 1.20322,7.82094 0.30081,7.97134 3.00805,7.82095 -4.81288,1.95523 -3.76007,2.40645 1.80483,1.80483 6.31691,-3.60967 16.2435,14.43866 18.64994,21.05639 -11.88182,9.17456 1.50403,1.80484 11.88181,-9.62578 15.64189,9.62578 3.91047,12.18262 2.55685,0.1504 -3.91048,-10.52819 26.77169,11.43061 0.75201,-1.80484 -26.92208,-13.08503 8.12174,-8.72336 10.37779,9.17456 0.90242,-0.60161 -10.07699,-9.32497 5.4145,-6.46731 10.37779,8.72335 1.50403,-1.65443 -9.92658,-9.17456 3.15846,-3.30886 20.30436,0.3008 1.65443,0.60161 v 3.15846 l -12.93463,9.77618 1.20322,0.75201 12.48343,-8.42255 1.35362,-6.91853 29.62934,22.25961 8.27215,10.9794 2.25604,-1.65443 -8.12175,-11.1298 -31.13336,-23.31243 -9.02417,-6.91852 -17.89792,-1.95524 -10.67859,-0.45121 4.96329,-3.15845 3.15845,-1.80484 1.80484,-4.51208 -1.95524,-0.75201 -1.35362,4.51208 -9.02417,5.4145 -13.23544,1.20322 9.32497,-7.97134 -2.40644,-0.30081 -4.51208,2.55685 -1.20323,-3.45927 -1.80483,-0.60161 1.50403,4.36168 -3.91047,5.2641 -24.51565,1.05282 -15.49148,-12.78424 21.8084,-0.90241 -0.90242,-2.55685 -21.35719,1.50403 -2.70724,-8.27215 -1.65443,-15.34108 3.45926,-3.15846 7.06893,-9.17456 1.80483,1.50402 3.76007,11.88182 1.50402,-0.75201 -2.85765,-11.58101 -1.95523,-2.40645 -0.30081,-5.11369 14.13786,-0.60161 3.30886,4.51208 1.20322,3.91047 1.95524,-0.3008 -0.60162,-2.25604 5.4145,-1.35363 h 8.57296 l -0.1504,-1.65443 -8.12175,-0.45121 -6.46732,1.80484 -3.00805,-4.66249 2.55684,-14.73947 4.66249,0.15041 18.19873,8.42255 5.26409,1.50403 3.15846,-0.30081 7.97134,-13.68665 1.35363,-2.40644 5.11369,-3.45926 4.96329,-1.95524 3.15846,-0.1504 18.49953,-15.79229 6.31692,8.72336 2.10564,5.11369 1.65443,3.91047 3.30886,2.55685 4.51208,0.75201 6.01611,0.60162 15.79228,-3.30886 -1.35362,-2.70725 -13.83705,2.40644 -5.7153,0.90242 c 0,0 -7.52014,-3.30886 -7.82095,-3.91047 -0.3008,-0.60162 -2.25604,-6.46732 -2.25604,-6.46732 l -6.31691,-9.32497 16.8451,-14.43866 6.01611,1.50402 20.00356,-0.90241 v -1.50403 l -20.00356,0.60161 -3.76007,-1.20322 19.10115,-14.88987 17.74752,-12.63383 4.66249,4.36168 1.50402,-1.50403 -4.06087,-4.21127 15.94269,-12.18262 6.16651,7.52013 1.50403,-1.65443 -11.43061,-17.59712 23.76363,-16.5443 z"
       id="path98" />
    <path
       style="fill:#000000;fill-opacity:0;stroke:#000000;stroke-width:0.302362;stroke-linecap:round;stroke-linejoin:round;stroke-dasharray:none;stroke-opacity:1"
       d="m 388.71213,708.1899 11.69859,17.22882 -40.2006,28.07661 -12.86845,-17.01612 z"
       id="path99" />
    <path
       style="fill:#000000;fill-opacity:0;stroke:#000000;stroke-width:0.302362;stroke-linecap:round;stroke-linejoin:round;stroke-dasharray:none;stroke-opacity:1"
       d="m 401.68693,727.86479 7.7636,9.78427 -14.57006,10.84778 -24.56703,18.29234 -8.40171,-11.27318 z"
       id="path100" />
    <path
       style="fill:#000000;fill-opacity:0;stroke:#000000;stroke-width:0.302362;stroke-linecap:round;stroke-linejoin:round;stroke-dasharray:none;stroke-opacity:1"
       d="m 410.30134,739.45703 10.10332,13.1875 v 0.95715 l -40.30694,28.07661 -9.35887,-13.29385 z"
       id="path101" />
    <path
       style="fill:#000000;fill-opacity:0;stroke:#000000;stroke-width:0.302362;stroke-linecap:round;stroke-linejoin:round;stroke-dasharray:none;stroke-opacity:1"
       d="m 421.68087,755.516 5.6366,8.18901 -34.67036,25.31148 -13.1875,-3.93497 z"
       id="path102" />
    <path
       style="fill:#000000;fill-opacity:0;stroke:#000000;stroke-width:0.302362;stroke-linecap:round;stroke-linejoin:round;stroke-dasharray:none;stroke-opacity:1"
       d="m 376.69449,786.67678 14.0383,3.40322 -0.10635,0.85081 -38.39263,29.88457 -7.86996,-10.84778 z"
       id="path103" />
    <path
       style="fill:#000000;fill-opacity:0;stroke:#000000;stroke-width:0.302362;stroke-linecap:round;stroke-linejoin:round;stroke-dasharray:none;stroke-opacity:1"
       d="m 369.03723,769.1289 9.03982,13.29385 -55.40876,38.92438 -4.99849,-16.69707 z"
       id="path104" />
    <path
       style="fill:#000000;fill-opacity:0;stroke:#000000;stroke-width:0.302362;stroke-linecap:round;stroke-linejoin:round;stroke-dasharray:none;stroke-opacity:1"
       d="m 359.04026,755.83505 7.97631,11.48588 -50.41027,35.20211 -4.57309,-2.02066 -4.25403,-4.89214 -2.02067,-3.72227 z"
       id="path105" />
    <path
       style="fill:#000000;fill-opacity:0;stroke:#000000;stroke-width:0.302362;stroke-linecap:round;stroke-linejoin:round;stroke-dasharray:none;stroke-opacity:1"
       d="m 256.7308,779.97668 v 4.89213 l 2.97782,15.52722 43.71018,-9.67792 54.34525,-36.15927 -12.9748,-17.01613 z"
       id="path106" />
    <path
       style="fill:#000000;fill-opacity:0;stroke:#000000;stroke-width:0.302362;stroke-linecap:round;stroke-linejoin:round;stroke-dasharray:none;stroke-opacity:1"
       d="m 259.60227,802.94845 44.56098,-10.74143 2.02067,3.93498 3.72228,4.89213 5.84929,3.72228 0.4254,4.89214 -59.02469,15.42086 z"
       id="path107" />
    <path
       style="fill:#000000;fill-opacity:0;stroke:#000000;stroke-width:0.302362;stroke-linecap:round;stroke-linejoin:round;stroke-dasharray:none;stroke-opacity:1"
       d="m 254.07203,781.57194 3.50958,17.86693 -2.55242,25.84324 V 836.768 l -28.39566,0.8508 -11.37954,-8.50806 -0.2127,-1.91431 7.86996,-4.36039 19.24949,-33.81955 z"
       id="path108" />
    <path
       style="fill:#000000;fill-opacity:0;stroke:#000000;stroke-width:0.302362;stroke-linecap:round;stroke-linejoin:round;stroke-dasharray:none;stroke-opacity:1"
       d="m 316.6063,811.56286 -59.13104,15.10181 -0.2127,9.35887 35.41481,2.97782 27.75755,-15.63356 z"
       id="path109" />
    <path
       style="fill:#000000;fill-opacity:0;stroke:#000000;stroke-width:0.302362;stroke-linecap:round;stroke-linejoin:round;stroke-dasharray:none;stroke-opacity:1"
       d="m 227.37798,839.42677 30.09728,-1.27621 -4.94908,18.54337 -12.93464,4.96329 z"
       id="path110" />
    <path
       style="fill:#000000;fill-opacity:0;stroke:#000000;stroke-width:0.302362;stroke-linecap:round;stroke-linejoin:round;stroke-dasharray:none;stroke-opacity:1"
       d="m 261.39994,839.69842 -4.51208,15.49148 32.48699,-13.98745 z"
       id="path111" />
    <path
       style="fill:#000000;fill-opacity:0;stroke:#000000;stroke-width:0.302362;stroke-linecap:round;stroke-linejoin:round;stroke-dasharray:none;stroke-opacity:1"
       d="m 240.49396,864.66527 34.89343,-14.13785 -1.35362,14.13785 H 259.1439 l -0.60161,7.06893 -11.43061,11.1298 z"
       id="path112" />
    <path
       style="fill:#000000;fill-opacity:0;stroke:#000000;stroke-width:0.302362;stroke-linecap:round;stroke-linejoin:round;stroke-dasharray:none;stroke-opacity:1"
       d="m 217.18154,873.68944 9.62577,-5.5649 10.52819,-1.80484 3.60967,9.32497 -10.22739,11.43061 z"
       id="path113" />
    <path
       style="fill:#000000;fill-opacity:0;stroke:#000000;stroke-width:0.302362;stroke-linecap:round;stroke-linejoin:round;stroke-dasharray:none;stroke-opacity:1"
       d="m 279.59867,848.72258 16.3939,-8.12174 19.85316,6.76812 -6.91853,11.43061 -22.71081,-8.72336 z"
       id="path114" />
    <path
       style="fill:#000000;fill-opacity:0;stroke:#000000;stroke-width:0.302362;stroke-linecap:round;stroke-linejoin:round;stroke-dasharray:none;stroke-opacity:1"
       d="m 342.0158,811.27231 8.72336,10.67859 -17.74752,14.88987 -5.1137,0.75201 -5.41449,2.70725 -4.66249,3.91047 -16.8451,-5.5649 z"
       id="path115" />
    <path
       style="fill:#000000;fill-opacity:0;stroke:#000000;stroke-width:0.302362;stroke-linecap:round;stroke-linejoin:round;stroke-dasharray:none;stroke-opacity:1"
       d="m 157.32125,884.36803 32.63739,-17.44672 4.36168,3.91048 2.70725,2.70724 2.10564,4.06088 v 1.35362 l -39.85672,17.44672 h -6.31692 z"
       id="path116" />
    <path
       style="fill:#000000;fill-opacity:0;stroke:#000000;stroke-width:0.302362;stroke-linecap:round;stroke-linejoin:round;stroke-dasharray:none;stroke-opacity:1"
       d="m 192.9667,865.11648 20.45477,-10.37779 11.43061,10.6786 -8.87376,5.8657 -7.82095,4.96329 -6.31691,1.65443 -2.25604,-4.96329 -1.65443,-2.25604 -4.66249,-4.51208 z"
       id="path117" />
    <path
       style="fill:#000000;fill-opacity:0;stroke:#000000;stroke-width:0.302362;stroke-linecap:round;stroke-linejoin:round;stroke-dasharray:none;stroke-opacity:1"
       d="m 195.37314,883.91682 12.63383,-4.81288 -0.1504,17.89792 -1.35363,3.30886 -1.50402,1.65443 h -3.76007 v -3.76007 z"
       id="path118" />
    <path
       style="fill:#000000;fill-opacity:0;stroke:#000000;stroke-width:0.302362;stroke-linecap:round;stroke-linejoin:round;stroke-dasharray:none;stroke-opacity:1"
       d="m 270.5564,926.63441 c 2.33972,0 39.66885,-1.16985 39.66885,-1.16985 l 27.33215,2.33971 7.55091,4.14768 -0.74446,2.12702 -21.48286,-0.63811 -20.41935,22.01462 -15.52721,-8.40171 z"
       id="path119" />
    <path
       style="fill:#ffffff;fill-opacity:0;stroke:#000000;stroke-width:0.302362;stroke-linecap:round;stroke-linejoin:round;stroke-dasharray:none;stroke-opacity:1"
       d="m 525.58559,337.87645 -75.93446,-23.50352 -38.71169,-41.68951 -12.76209,-3.82863 -39.56249,-1.70161 -201.6411,56.57862 -156.54835685,88.05845 v 5.53024 L 158.67538,327.13502 l 198.66327,-53.60079 39.98789,0.4254 11.48589,2.97782 35.30846,39.56249 80.18301,24.61344 z"
       id="path120" />
    <path
       style="fill:#000000;fill-opacity:0;stroke:#000000;stroke-width:0.302362;stroke-linecap:round;stroke-linejoin:round;stroke-dasharray:none;stroke-opacity:1"
       d="m 772.53212,577.27208 2.12702,5.53024 -0.85081,4.89213 -1.27621,4.89214 2.33972,13.6129 1.48891,6.80645 1.06351,12.76209 -0.63811,4.89214 -21.05745,8.93347 -0.42541,2.55242 -41.4768,17.01612 -14.88911,2.55242 -10.20968,3.82863 -20.84475,11.69859 4.25403,29.35281 -0.63811,4.67944 -2.33971,3.19052 h -4.04133 l -5.95565,-4.89213 -7.44455,-5.31754 -5.10484,-0.85081 -7.86996,1.06351 -33.37186,51.15568 -1.65443,2.40644 -3.30886,0.90242 -1.65443,1.95523 -2.10563,2.70725 -0.75202,2.70725 -0.75201,3.60967 -1.35363,3.00805 -2.55684,1.35363 1.20322,1.80483 2.25604,-1.80483 3.91047,-10.22739 5.7153,-3.76007 35.04384,-53.24256 6.46732,-0.90242 5.11369,0.75201 12.93463,9.17457 5.2641,0.75201 3.91047,-3.15845 1.95524,-6.31692 -4.81289,-28.42611 18.64994,-10.9794 10.67859,-4.06088 13.23544,-2.55684 13.38584,34.89343 1.05282,7.52014 3.45926,10.22738 2.70725,10.829 0.60161,4.06087 0.60162,4.96329 2.10563,4.21128 -2.25604,20.30437 5.86571,8.12174 2.25604,7.97135 3.91047,12.33302 3.60967,6.46732 9.77617,19.70276 1.95524,-0.45121 -9.02416,-20.00356 -3.45927,-4.66249 -6.61772,-21.80839 -5.5649,-7.36974 1.80483,-20.15396 -2.55684,-6.31692 -0.90242,-7.06893 -6.31691,-21.80839 -0.75202,-6.76812 -13.38584,-35.04384 40.15753,-17.44672 13.08504,32.9382 2.55684,-1.05282 -13.38584,-30.83256 v -3.76006 l 21.20678,-9.32497 0.60162,-6.16652 -0.45121,-13.38584 -3.91047,-19.70276 2.10563,-9.02416 -1.35362,-7.06893 z"
       id="path121" />
  </g>
</svg>
